<svg version="1.1" id="Layer_1" xmlns="http://www.w3.org/2000/svg" xmlns:xlink="http://www.w3.org/1999/xlink" x="0px" y="0px"
	 width="100%" viewBox="0 0 274 250" enable-background="new 0 0 274 250" xml:space="preserve">
<path fill="#0074BA" opacity="1.000000" stroke="none" 
	d="
M217.000000,251.000000 
	C174.979111,251.000000 132.958206,251.000000 90.489136,250.740021 
	C90.092667,250.314072 90.144379,250.148087 90.478882,249.740875 
	C91.172913,247.771881 91.940910,246.044617 91.943359,244.316254 
	C92.008621,198.359024 92.015396,152.401627 91.919067,106.444511 
	C91.915268,104.634682 90.799843,102.827171 90.379456,100.634804 
	C111.181175,100.167664 131.806702,100.171181 152.430054,99.960464 
	C161.352951,99.869308 170.270462,99.309601 179.192032,99.010735 
	C189.020905,98.681496 197.188156,93.541496 198.973343,80.430473 
	C200.332565,70.447899 197.169632,64.360909 187.271332,61.922718 
	C178.442459,59.747955 169.220749,59.069683 160.134171,58.083023 
	C155.922852,57.625740 151.620682,58.004974 147.000000,58.004974 
	C147.000000,38.547668 147.000000,19.773834 147.000000,1.000000 
	C165.020889,1.000000 183.041794,1.000000 201.363251,1.385668 
	C209.380447,4.193845 217.259628,6.199701 224.777313,9.132247 
	C237.434311,14.069579 247.371872,22.368120 253.890366,34.555798 
	C261.545441,48.868488 261.948212,63.987324 260.150330,79.684883 
	C258.489563,94.185593 251.752090,105.369987 240.390961,113.993599 
	C237.011856,116.558487 233.126938,118.456970 230.404343,120.099411 
	C237.915985,124.551491 245.997345,128.494186 253.111984,133.746399 
	C265.347198,142.778763 271.777985,155.393051 273.077515,170.612396 
	C273.177887,171.787735 274.334381,172.872910 275.000000,174.000000 
	C275.000000,179.022095 275.000000,184.044189 274.595886,189.388580 
	C273.798737,190.550140 273.127716,191.365799 273.054108,192.232193 
	C271.811310,206.866806 265.481567,219.268463 255.615036,229.728973 
	C245.663681,240.279434 233.077438,246.394592 218.816940,249.087692 
	C218.115906,249.220093 217.601379,250.339951 217.000000,251.000000 
M175.463409,153.002289 
	C166.062851,153.002289 156.662292,153.002289 147.266541,153.002289 
	C147.266541,168.345032 147.266541,182.911011 147.266541,197.004837 
	C161.888367,197.004837 176.251221,197.384903 190.582626,196.877426 
	C200.939819,196.510681 208.000916,190.385590 209.641922,180.361069 
	C211.409531,169.563156 209.472809,159.951843 196.227020,156.121704 
	C189.865219,154.282120 183.055267,153.992401 175.463409,153.002289 
z"/>
<path fill="#727777" opacity="1.000000" stroke="none" 
	d="
M63.000000,251.000000 
	C42.353756,251.000000 21.707510,251.000000 1.030632,251.000000 
	C1.030632,167.769440 1.030632,84.538872 1.030632,1.000000 
	C44.353741,1.000000 87.708214,1.000000 131.500793,1.259562 
	C131.888550,1.685921 131.838181,1.852717 131.507507,2.262529 
	C130.826538,3.733467 130.083572,4.959603 130.077164,6.189578 
	C129.996552,21.649872 129.974075,37.111107 130.098923,52.570793 
	C130.110825,54.045708 131.213089,55.511818 131.620575,57.359306 
	C108.719727,57.736603 86.007454,57.736603 63.000000,57.736603 
	C63.000000,122.868256 63.000000,186.934128 63.000000,251.000000 
z"/>
<path fill="#000000" opacity="1.000000" stroke="none" 
	d="
M131.787796,2.019512 
	C131.838181,1.852717 131.888550,1.685921 131.969452,1.259562 
	C136.689255,1.000000 141.378510,1.000000 146.533875,1.000000 
	C147.000000,19.773834 147.000000,38.547668 147.000000,58.004974 
	C151.620682,58.004974 155.922852,57.625740 160.134171,58.083023 
	C169.220749,59.069683 178.442459,59.747955 187.271332,61.922718 
	C197.169632,64.360909 200.332565,70.447899 198.973343,80.430473 
	C197.188156,93.541496 189.020905,98.681496 179.192032,99.010735 
	C170.270462,99.309601 161.352951,99.869308 152.430054,99.960464 
	C131.806702,100.171181 111.181175,100.167664 90.317383,101.098648 
	C90.067757,117.897064 90.034973,133.847900 90.051437,149.798660 
	C90.085915,183.193161 90.146332,216.587616 90.196091,249.982101 
	C90.144379,250.148087 90.092667,250.314072 90.020477,250.740021 
	C81.312439,251.000000 72.624870,251.000000 63.468655,251.000000 
	C63.000000,186.934128 63.000000,122.868256 63.000000,57.736603 
	C86.007454,57.736603 108.719727,57.736603 131.677856,56.894897 
	C131.878403,38.041969 131.833099,20.030741 131.787796,2.019512 
z"/>
<path fill="#000000" opacity="1.000000" stroke="none" 
	d="
M275.000000,173.531342 
	C274.334381,172.872910 273.177887,171.787735 273.077515,170.612396 
	C271.777985,155.393051 265.347198,142.778763 253.111984,133.746399 
	C245.997345,128.494186 237.915985,124.551491 230.404343,120.099411 
	C233.126938,118.456970 237.011856,116.558487 240.390961,113.993599 
	C251.752090,105.369987 258.489563,94.185593 260.150330,79.684883 
	C261.948212,63.987324 261.545441,48.868488 253.890366,34.555798 
	C247.371872,22.368120 237.434311,14.069579 224.777313,9.132247 
	C217.259628,6.199701 209.380447,4.193845 201.831909,1.385668 
	C226.289993,1.000000 250.579971,1.000000 275.000000,1.000000 
	C275.000000,58.354164 275.000000,115.708427 275.000000,173.531342 
z"/>
<path fill="#000000" opacity="1.000000" stroke="none" 
	d="
M217.468658,251.000000 
	C217.601379,250.339951 218.115906,249.220093 218.816940,249.087692 
	C233.077438,246.394592 245.663681,240.279434 255.615036,229.728973 
	C265.481567,219.268463 271.811310,206.866806 273.054108,192.232193 
	C273.127716,191.365799 273.798737,190.550140 274.595886,189.855438 
	C275.000000,210.258301 275.000000,230.516586 275.000000,251.000000 
	C255.979691,251.000000 236.958511,251.000000 217.468658,251.000000 
z"/>
<path fill="#000000" opacity="1.000000" stroke="none" 
	d="
M175.955841,153.001556 
	C183.055267,153.992401 189.865219,154.282120 196.227020,156.121704 
	C209.472809,159.951843 211.409531,169.563156 209.641922,180.361069 
	C208.000916,190.385590 200.939819,196.510681 190.582626,196.877426 
	C176.251221,197.384903 161.888367,197.004837 147.266541,197.004837 
	C147.266541,182.911011 147.266541,168.345032 147.266541,153.002289 
	C156.662292,153.002289 166.062851,153.002289 175.955841,153.001556 
z"/>
<path fill="#007EC9" opacity="1.000000" stroke="none" 
	d="
M90.478882,249.740875 
	C90.146332,216.587616 90.085915,183.193161 90.051437,149.798660 
	C90.034973,133.847900 90.067757,117.897064 90.140305,101.482422 
	C90.799843,102.827171 91.915268,104.634682 91.919067,106.444511 
	C92.015396,152.401627 92.008621,198.359024 91.943359,244.316254 
	C91.940910,246.044617 91.172913,247.771881 90.478882,249.740875 
z"/>
<path fill="#7B8080" opacity="1.000000" stroke="none" 
	d="
M131.507507,2.262529 
	C131.833099,20.030741 131.878403,38.041969 131.866425,56.517605 
	C131.213089,55.511818 130.110825,54.045708 130.098923,52.570793 
	C129.974075,37.111107 129.996552,21.649872 130.077164,6.189578 
	C130.083572,4.959603 130.826538,3.733467 131.507507,2.262529 
z"/>
</svg>